<svg width="1542" height="456" viewBox="0 0 1542 456" fill="none" xmlns="http://www.w3.org/2000/svg">
<path d="M0 218.807L248.858 343.658L497.717 218.807V385.837H248.858H0V218.807Z" fill="#7896FF"/>
<path d="M130.756 198.561V198.561C130.756 139.802 161.084 85.2037 210.971 54.1554L251.389 29H305.379L229.993 77.5317C134.492 139.013 143.704 281.49 246.328 330.161V330.161L0 205.039H63.2691L88.7569 217.347C107.863 226.574 130.756 219.779 130.756 198.561V198.561Z" fill="#ADABFF"/>
<path d="M322.312 289.205L261.346 320.411C164.715 277.115 154.962 143.035 245.188 86.4269L322.312 38.0396V289.205Z" stroke="#7593FF" stroke-width="10"/>
<path d="M582.843 97.0303C602.365 97.861 626.923 98.2764 656.518 98.2764L716.798 261.515H717.577L780.349 98.2764H798.261C811.137 98.2764 829.31 97.861 852.778 97.0303C853.193 98.6917 853.401 99.834 853.401 100.457C853.401 101.184 853.193 102.482 852.778 104.351C849.039 104.663 846.028 104.974 843.744 105.286C841.459 105.597 838.396 106.116 834.554 106.843C830.815 107.57 827.804 108.453 825.519 109.491C823.235 110.426 821.21 111.776 819.445 113.541C817.679 115.202 816.745 117.124 816.641 119.304C815.603 143.707 815.083 172.73 815.083 206.375C815.083 240.539 815.758 273.301 817.108 304.661C817.212 307.361 818.406 309.697 820.691 311.67C822.975 313.539 826.246 314.993 830.504 316.031C834.865 317.07 838.5 317.848 841.407 318.368C844.418 318.783 848.313 319.198 853.089 319.614C853.505 321.275 853.712 322.677 853.712 323.819C853.712 324.65 853.505 325.688 853.089 326.935C835.54 326.312 817.472 326 798.884 326C780.193 326 762.124 326.312 744.679 326.935C744.264 325.688 744.056 324.65 744.056 323.819C744.056 322.054 744.264 320.652 744.679 319.614C749.456 319.198 753.298 318.783 756.205 318.368C759.217 317.848 762.851 317.07 767.109 316.031C771.47 314.993 774.793 313.539 777.078 311.67C779.362 309.697 780.556 307.361 780.66 304.661C781.698 272.262 782.218 243.342 782.218 217.901C782.218 193.499 781.698 165.721 780.66 134.569H779.414L708.231 322.106H706.673L630.817 130.831H629.104C628.273 156.064 627.858 185.088 627.858 217.901C627.858 241.993 628.377 270.133 629.415 302.324C629.623 311.774 641.098 317.537 663.839 319.614C664.358 321.379 664.618 322.781 664.618 323.819C664.618 324.858 664.358 325.896 663.839 326.935C647.328 326.312 632.583 326 619.602 326C611.295 326 597.38 326.312 577.858 326.935C577.339 325.896 577.079 324.858 577.079 323.819C577.079 322.054 577.339 320.652 577.858 319.614C600.807 317.433 612.282 311.67 612.282 302.324C613.528 269.926 614.151 237.943 614.151 206.375C614.151 183.634 613.839 159.491 613.216 133.946C613.112 129.584 612.853 125.95 612.437 123.042C612.022 120.031 611.243 117.435 610.101 115.254C608.959 113.074 607.765 111.36 606.518 110.114C605.272 108.868 603.351 107.778 600.755 106.843C598.159 105.805 595.615 105.078 593.123 104.663C590.735 104.143 587.308 103.572 582.843 102.949C582.427 102.118 582.22 101.184 582.22 100.146C582.22 98.8994 582.427 97.861 582.843 97.0303Z" fill="#7896FF"/>
<path d="M999.038 243.446H914.148C913.732 249.677 913.525 255.18 913.525 259.957C913.836 275.429 918.353 287.838 927.076 297.184C935.799 306.426 947.481 311.047 962.122 311.047C966.068 311.047 969.755 310.632 973.182 309.801C976.608 308.866 979.412 307.828 981.593 306.686C983.877 305.543 986.214 303.882 988.602 301.701C990.99 299.521 992.704 297.807 993.742 296.561C994.884 295.211 996.39 293.238 998.259 290.642C1000.13 287.942 1001.37 286.229 1002 285.502C1004.49 286.021 1006.51 287.163 1008.07 288.929C1002.88 302.843 994.832 313.279 983.929 320.237C973.026 327.09 961.188 330.517 948.415 330.517C942.081 330.517 935.903 329.686 929.88 328.025C923.961 326.467 918.198 323.871 912.59 320.237C906.983 316.602 902.102 312.137 897.949 306.841C893.795 301.442 890.472 294.744 887.98 286.748C885.488 278.648 884.242 269.718 884.242 259.957C884.242 238.047 890.939 219.978 904.335 205.752C917.73 191.526 934.189 184.413 953.711 184.413C962.33 184.413 969.807 185.659 976.141 188.151C982.579 190.539 987.564 193.81 991.094 197.964C994.729 202.118 997.377 206.687 999.038 211.671C1000.8 216.551 1001.69 221.795 1001.69 227.403C1001.69 232.595 1000.8 237.943 999.038 243.446ZM949.973 194.537C942.808 194.537 936.006 197.704 929.568 204.039C923.234 210.373 918.665 219.978 915.861 232.854H971.935C972.974 228.909 973.493 225.482 973.493 222.574C973.493 214.475 971.624 207.777 967.886 202.481C964.147 197.185 958.176 194.537 949.973 194.537ZM1112.12 102.015C1131.75 100.146 1149.3 95.888 1164.77 89.2422C1167.47 90.3844 1169.23 91.7863 1170.06 93.4478C1170.06 211.1 1170.53 281.504 1171.47 304.661C1171.57 307.361 1172.35 309.697 1173.8 311.67C1175.36 313.539 1177.54 314.993 1180.34 316.031C1183.15 317.07 1185.48 317.848 1187.35 318.368C1189.22 318.783 1191.66 319.198 1194.67 319.614C1195.09 321.275 1195.3 322.573 1195.3 323.508C1195.3 324.131 1195.09 325.273 1194.67 326.935C1191.04 326.727 1187.3 326.519 1183.46 326.312C1179.72 326.104 1176.76 325.948 1174.58 325.844C1172.4 325.74 1170.38 325.688 1168.51 325.688C1166.95 325.688 1165.18 325.74 1163.21 325.844C1161.24 325.948 1158.54 326.104 1155.11 326.312C1151.68 326.519 1148.31 326.727 1144.99 326.935C1144.47 326.727 1144 326.467 1143.58 326.156C1143.27 325.948 1143.01 325.792 1142.81 325.688C1142.7 325.481 1142.55 325.221 1142.34 324.91C1142.13 324.494 1141.98 324.235 1141.87 324.131C1141.77 324.027 1141.61 323.715 1141.4 323.196C1141.3 322.573 1141.2 322.21 1141.09 322.106C1141.51 319.614 1141.72 314.006 1141.72 305.284C1124.58 322.106 1108.75 330.517 1094.21 330.517C1078.22 330.517 1065.18 324.494 1055.11 312.449C1045.04 300.403 1040 283.996 1040 263.228C1040 256.063 1040.83 248.898 1042.5 241.733C1044.16 234.568 1046.91 227.507 1050.75 220.549C1054.59 213.592 1059.32 207.465 1064.93 202.169C1070.53 196.874 1077.65 192.616 1086.26 189.397C1094.88 186.074 1104.44 184.413 1114.92 184.413C1122.71 184.413 1131.85 186.074 1142.34 189.397C1142.13 169.667 1142.03 145.109 1142.03 115.722C1136.11 112.295 1126.14 110.166 1112.12 109.335C1111.71 107.674 1111.5 106.428 1111.5 105.597C1111.5 104.87 1111.71 103.676 1112.12 102.015ZM1109.16 310.112C1119.55 310.112 1130.5 304.557 1142.03 293.446C1142.23 283.269 1142.34 264.007 1142.34 235.658V213.073C1135.17 200.716 1124.22 194.537 1109.47 194.537C1106.36 194.537 1103.24 195.004 1100.13 195.939C1097.01 196.874 1093.69 198.743 1090.16 201.546C1086.63 204.35 1083.51 207.933 1080.81 212.294C1078.22 216.655 1076.04 222.73 1074.27 230.518C1072.51 238.202 1071.62 247.081 1071.62 257.153C1071.62 272.522 1074.79 285.19 1081.12 295.159C1087.56 305.128 1096.91 310.112 1109.16 310.112ZM1218.35 197.808C1238.5 195.731 1256.04 191.474 1271 185.036C1273.59 186.074 1275.41 187.424 1276.45 189.085C1276.45 242.979 1276.86 281.504 1277.7 304.661C1277.8 307.361 1278.58 309.697 1280.03 311.67C1281.59 313.539 1283.77 314.993 1286.57 316.031C1289.38 317.07 1291.71 317.848 1293.58 318.368C1295.45 318.783 1297.89 319.198 1300.9 319.614C1301.53 320.86 1301.84 322.158 1301.84 323.508C1301.84 324.858 1301.53 326 1300.9 326.935C1287.2 326.312 1273.91 326 1261.03 326C1248.36 326 1235.17 326.312 1221.47 326.935C1221.05 325.273 1220.84 324.131 1220.84 323.508C1220.84 322.989 1221.05 321.691 1221.47 319.614C1224.89 319.198 1227.7 318.783 1229.88 318.368C1232.06 317.848 1234.76 317.07 1237.98 316.031C1241.2 314.993 1243.64 313.539 1245.3 311.67C1246.96 309.697 1247.84 307.361 1247.95 304.661C1248.36 294.38 1248.57 281.919 1248.57 267.278C1248.57 262.397 1248.52 254.09 1248.41 242.356C1248.31 230.622 1248.26 220.342 1248.26 211.515C1242.34 207.881 1232.37 205.752 1218.35 205.129C1217.94 203.467 1217.73 202.169 1217.73 201.235C1217.73 200.612 1217.94 199.47 1218.35 197.808ZM1242.81 132.7C1242.81 127.404 1244.67 122.887 1248.41 119.148C1252.25 115.41 1256.77 113.541 1261.96 113.541C1267.26 113.541 1271.78 115.41 1275.52 119.148C1279.25 122.887 1281.12 127.404 1281.12 132.7C1281.12 137.892 1279.25 142.409 1275.52 146.251C1271.78 149.989 1267.26 151.858 1261.96 151.858C1256.77 151.858 1252.25 149.989 1248.41 146.251C1244.67 142.409 1242.81 137.892 1242.81 132.7ZM1449.03 285.502C1451.53 286.021 1453.55 287.163 1455.11 288.929C1449.92 302.843 1441.87 313.279 1430.97 320.237C1420.06 327.09 1408.22 330.517 1395.45 330.517C1389.12 330.517 1382.94 329.686 1376.92 328.025C1370.89 326.467 1365.03 323.871 1359.31 320.237C1353.71 316.602 1348.77 312.137 1344.52 306.841C1340.36 301.442 1336.99 294.744 1334.39 286.748C1331.9 278.648 1330.65 269.718 1330.65 259.957C1330.65 237.424 1337.56 219.199 1351.37 205.285C1365.18 191.37 1382.42 184.413 1403.08 184.413C1417.62 184.413 1429.46 187.58 1438.6 193.914C1447.84 200.145 1452.46 208.14 1452.46 217.901C1452.46 223.405 1450.64 227.974 1447.01 231.608C1443.37 235.243 1438.91 237.06 1433.61 237.06C1428.01 237.06 1423.49 235.451 1420.06 232.231C1416.64 228.909 1414.92 225.066 1414.92 220.705C1414.92 212.813 1418.92 207.829 1426.92 205.752C1426.19 203.364 1423.85 200.923 1419.91 198.431C1415.96 195.835 1410.35 194.537 1403.08 194.537C1399.35 194.537 1395.81 195.004 1392.49 195.939C1389.17 196.77 1385.59 198.587 1381.74 201.391C1378.01 204.194 1374.79 207.881 1372.09 212.45C1369.49 217.019 1367.31 223.405 1365.55 231.608C1363.78 239.708 1362.9 249.158 1362.9 259.957C1362.9 267.226 1363.62 273.82 1365.08 279.739C1366.64 285.658 1369.02 291.006 1372.24 295.782C1375.46 300.559 1379.88 304.297 1385.48 306.997C1391.09 309.697 1397.68 311.047 1405.26 311.047C1410.04 311.047 1414.56 310.424 1418.82 309.178C1423.07 307.828 1426.5 306.426 1429.1 304.972C1431.8 303.518 1434.65 301.338 1437.66 298.43C1440.78 295.419 1442.86 293.29 1443.89 292.044C1444.93 290.694 1446.65 288.513 1449.03 285.502Z" fill="#A49CFF"/>
</svg>
