<svg width="879" height="242" viewBox="0 0 879 242" fill="none" xmlns="http://www.w3.org/2000/svg">
<path d="M5.84265 8.03027C25.3648 8.861 49.9232 9.27637 79.5179 9.27637L139.798 172.515H140.577L203.349 9.27637H221.261C234.137 9.27637 252.31 8.861 275.778 8.03027C276.193 9.69173 276.401 10.834 276.401 11.457C276.401 12.1839 276.193 13.4819 275.778 15.3511C272.039 15.6626 269.028 15.9741 266.744 16.2856C264.459 16.5972 261.396 17.1164 257.554 17.8433C253.815 18.5701 250.804 19.4528 248.519 20.4912C246.235 21.4258 244.21 22.7757 242.445 24.541C240.679 26.2025 239.745 28.1235 239.641 30.3042C238.603 54.7069 238.083 83.7305 238.083 117.375C238.083 151.539 238.758 184.301 240.108 215.661C240.212 218.361 241.406 220.697 243.691 222.67C245.975 224.539 249.246 225.993 253.504 227.031C257.865 228.07 261.5 228.848 264.407 229.368C267.418 229.783 271.313 230.198 276.089 230.614C276.505 232.275 276.712 233.677 276.712 234.819C276.712 235.65 276.505 236.688 276.089 237.935C258.54 237.312 240.472 237 221.884 237C203.193 237 185.124 237.312 167.679 237.935C167.264 236.688 167.056 235.65 167.056 234.819C167.056 233.054 167.264 231.652 167.679 230.614C172.456 230.198 176.298 229.783 179.205 229.368C182.217 228.848 185.851 228.07 190.109 227.031C194.47 225.993 197.793 224.539 200.078 222.67C202.362 220.697 203.556 218.361 203.66 215.661C204.698 183.262 205.218 154.342 205.218 128.901C205.218 104.499 204.698 76.7212 203.66 45.5688H202.414L131.231 233.106H129.673L53.8173 41.8306H52.1039C51.2732 67.064 50.8578 96.0876 50.8578 128.901C50.8578 152.993 51.377 181.133 52.4154 213.324C52.6231 222.774 64.0975 228.537 86.8387 230.614C87.358 232.379 87.6176 233.781 87.6176 234.819C87.6176 235.858 87.358 236.896 86.8387 237.935C70.328 237.312 55.5826 237 42.6024 237C34.2951 237 20.3804 237.312 0.858276 237.935C0.339071 236.896 0.0794678 235.858 0.0794678 234.819C0.0794678 233.054 0.339071 231.652 0.858276 230.614C23.8072 228.433 35.2816 222.67 35.2816 213.324C36.5277 180.926 37.1508 148.943 37.1508 117.375C37.1508 94.6338 36.8392 70.4907 36.2162 44.9458C36.1123 40.5845 35.8527 36.95 35.4374 34.0425C35.022 31.0311 34.2432 28.4351 33.101 26.2544C31.9587 24.0737 30.7645 22.3604 29.5184 21.1143C28.2723 19.8682 26.3513 18.7778 23.7552 17.8433C21.1592 16.8049 18.6151 16.078 16.1229 15.6626C13.7346 15.1434 10.3078 14.5723 5.84265 13.9492C5.42729 13.1185 5.2196 12.1839 5.2196 11.1455C5.2196 9.89941 5.42729 8.861 5.84265 8.03027Z" fill="#7896FF"/>
<path d="M422.038 154.446H337.148C336.732 160.677 336.525 166.18 336.525 170.957C336.836 186.429 341.353 198.838 350.076 208.184C358.799 217.426 370.481 222.047 385.122 222.047C389.068 222.047 392.755 221.632 396.182 220.801C399.608 219.866 402.412 218.828 404.593 217.686C406.877 216.543 409.214 214.882 411.602 212.701C413.99 210.521 415.704 208.807 416.742 207.561C417.884 206.211 419.39 204.238 421.259 201.642C423.128 198.942 424.374 197.229 424.997 196.502C427.49 197.021 429.515 198.163 431.072 199.929C425.88 213.843 417.832 224.279 406.929 231.237C396.026 238.09 384.188 241.517 371.415 241.517C365.081 241.517 358.903 240.686 352.88 239.025C346.961 237.467 341.198 234.871 335.59 231.237C329.983 227.602 325.102 223.137 320.949 217.841C316.795 212.442 313.472 205.744 310.98 197.748C308.488 189.648 307.242 180.718 307.242 170.957C307.242 149.047 313.939 130.978 327.335 116.752C340.73 102.526 357.189 95.4126 376.711 95.4126C385.33 95.4126 392.807 96.6587 399.141 99.1509C405.579 101.539 410.564 104.81 414.094 108.964C417.729 113.118 420.377 117.687 422.038 122.671C423.803 127.551 424.686 132.795 424.686 138.403C424.686 143.595 423.803 148.943 422.038 154.446ZM372.973 105.537C365.808 105.537 359.006 108.704 352.568 115.039C346.234 121.373 341.665 130.978 338.861 143.854H394.935C395.974 139.909 396.493 136.482 396.493 133.574C396.493 125.475 394.624 118.777 390.886 113.481C387.147 108.185 381.176 105.537 372.973 105.537ZM535.121 13.0146C554.747 11.1455 572.296 6.88802 587.768 0.242188C590.468 1.38444 592.234 2.7863 593.064 4.44775C593.064 122.1 593.532 192.504 594.466 215.661C594.57 218.361 595.349 220.697 596.803 222.67C598.36 224.539 600.541 225.993 603.345 227.031C606.148 228.07 608.485 228.848 610.354 229.368C612.223 229.783 614.663 230.198 617.675 230.614C618.09 232.275 618.298 233.573 618.298 234.508C618.298 235.131 618.09 236.273 617.675 237.935C614.04 237.727 610.302 237.519 606.46 237.312C602.722 237.104 599.762 236.948 597.581 236.844C595.401 236.74 593.376 236.688 591.507 236.688C589.949 236.688 588.184 236.74 586.211 236.844C584.238 236.948 581.538 237.104 578.111 237.312C574.684 237.519 571.31 237.727 567.987 237.935C567.467 237.727 567 237.467 566.585 237.156C566.273 236.948 566.014 236.792 565.806 236.688C565.702 236.481 565.546 236.221 565.339 235.91C565.131 235.494 564.975 235.235 564.871 235.131C564.768 235.027 564.612 234.715 564.404 234.196C564.3 233.573 564.196 233.21 564.093 233.106C564.508 230.614 564.716 225.006 564.716 216.284C547.582 233.106 531.746 241.517 517.208 241.517C501.217 241.517 488.185 235.494 478.112 223.449C468.04 211.403 463.003 194.996 463.003 174.228C463.003 167.063 463.834 159.898 465.495 152.733C467.157 145.568 469.909 138.507 473.751 131.549C477.593 124.592 482.318 118.465 487.925 113.169C493.533 107.874 500.646 103.616 509.265 100.397C517.883 97.0741 527.437 95.4126 537.925 95.4126C545.713 95.4126 554.851 97.0741 565.339 100.397C565.131 80.6672 565.027 56.1087 565.027 26.7217C559.108 23.2949 549.14 21.1662 535.121 20.3354C534.706 18.674 534.498 17.4279 534.498 16.5972C534.498 15.8703 534.706 14.6761 535.121 13.0146ZM532.161 221.112C542.546 221.112 553.501 215.557 565.027 204.446C565.235 194.269 565.339 175.007 565.339 146.658V124.073C558.174 111.716 547.218 105.537 532.473 105.537C529.358 105.537 526.243 106.004 523.127 106.939C520.012 107.874 516.689 109.743 513.159 112.546C509.628 115.35 506.513 118.933 503.813 123.294C501.217 127.655 499.036 133.73 497.271 141.518C495.506 149.202 494.623 158.081 494.623 168.153C494.623 183.522 497.79 196.19 504.124 206.159C510.563 216.128 519.908 221.112 532.161 221.112ZM641.35 108.808C661.496 106.731 679.045 102.474 693.998 96.0356C696.594 97.0741 698.411 98.424 699.45 100.085C699.45 153.979 699.865 192.504 700.696 215.661C700.8 218.361 701.578 220.697 703.032 222.67C704.59 224.539 706.77 225.993 709.574 227.031C712.378 228.07 714.714 228.848 716.583 229.368C718.453 229.783 720.893 230.198 723.904 230.614C724.527 231.86 724.839 233.158 724.839 234.508C724.839 235.858 724.527 237 723.904 237.935C710.197 237.312 696.905 237 684.029 237C671.361 237 658.173 237.312 644.466 237.935C644.05 236.273 643.843 235.131 643.843 234.508C643.843 233.989 644.05 232.691 644.466 230.614C647.892 230.198 650.696 229.783 652.877 229.368C655.057 228.848 657.757 228.07 660.976 227.031C664.196 225.993 666.636 224.539 668.297 222.67C669.959 220.697 670.841 218.361 670.945 215.661C671.361 205.38 671.568 192.919 671.568 178.278C671.568 173.397 671.516 165.09 671.412 153.356C671.309 141.622 671.257 131.342 671.257 122.515C665.338 118.881 655.369 116.752 641.35 116.129C640.935 114.467 640.727 113.169 640.727 112.235C640.727 111.612 640.935 110.47 641.35 108.808ZM665.805 43.6997C665.805 38.4038 667.674 33.8867 671.412 30.1484C675.255 26.4102 679.772 24.541 684.964 24.541C690.26 24.541 694.777 26.4102 698.515 30.1484C702.253 33.8867 704.122 38.4038 704.122 43.6997C704.122 48.8918 702.253 53.4089 698.515 57.251C694.777 60.9893 690.26 62.8584 684.964 62.8584C679.772 62.8584 675.255 60.9893 671.412 57.251C667.674 53.4089 665.805 48.8918 665.805 43.6997ZM872.034 196.502C874.526 197.021 876.551 198.163 878.108 199.929C872.916 213.843 864.869 224.279 853.965 231.237C843.062 238.09 831.224 241.517 818.452 241.517C812.117 241.517 805.939 240.686 799.916 239.025C793.893 237.467 788.026 234.871 782.315 231.237C776.707 227.602 771.775 223.137 767.517 217.841C763.364 212.442 759.989 205.744 757.393 197.748C754.901 189.648 753.655 180.718 753.655 170.957C753.655 148.424 760.56 130.199 774.371 116.285C788.182 102.37 805.419 95.4126 826.084 95.4126C840.622 95.4126 852.46 98.5798 861.598 104.914C870.839 111.145 875.46 119.14 875.46 128.901C875.46 134.405 873.643 138.974 870.009 142.608C866.374 146.243 861.909 148.06 856.613 148.06C851.006 148.06 846.489 146.451 843.062 143.231C839.635 139.909 837.922 136.066 837.922 131.705C837.922 123.813 841.92 118.829 849.915 116.752C849.189 114.364 846.852 111.923 842.906 109.431C838.96 106.835 833.353 105.537 826.084 105.537C822.346 105.537 818.815 106.004 815.492 106.939C812.169 107.77 808.587 109.587 804.745 112.391C801.006 115.194 797.787 118.881 795.087 123.45C792.491 128.019 790.311 134.405 788.545 142.608C786.78 150.708 785.897 160.158 785.897 170.957C785.897 178.226 786.624 184.82 788.078 190.739C789.636 196.658 792.024 202.006 795.243 206.782C798.462 211.559 802.875 215.297 808.483 217.997C814.09 220.697 820.684 222.047 828.265 222.047C833.041 222.047 837.558 221.424 841.816 220.178C846.073 218.828 849.5 217.426 852.096 215.972C854.796 214.518 857.652 212.338 860.663 209.43C863.778 206.419 865.855 204.29 866.893 203.044C867.932 201.694 869.645 199.513 872.034 196.502Z" fill="#A49CFF"/>
</svg>
